<?xml version="1.0" standalone="no"?>
<svg version="1.1" id="downloadSvg" xmlns="http://www.w3.org/2000/svg" xmlns:xlink="http://www.w3.org/1999/xlink" x="0px" y="0px" viewBox="0 0 1200 1200" enable-background="new 0 0 1200 1200" xml:space="preserve" height="1024" width="1024">
<g>
	<g>
		<path fill="#E4D9C0" d="M947.793,576.112c0-204.989-166.182-371.172-371.178-371.172c-204.989,0-371.172,166.183-371.172,371.172&#10;&#9;&#9;&#9;c0,57.499,13.082,111.948,36.419,160.535l351.904-138.987"/>
		<path fill="#A3283A" d="M240.926,593.823c0,0,8.653-34.315,0-58.187c-8.653-23.876,1.45-29.839,20.19-65.651&#10;&#9;&#9;&#9;c18.733-35.808,15.848-47.744,31.719-70.123c15.857-22.378,34.597-19.396,47.576-38.791c12.98-19.396,5.776-26.855,28.843-50.727&#10;&#9;&#9;&#9;c23.059-23.872,23.059-29.839,53.344-28.349c30.277,1.49,43.264-16.408,76.419-28.348c33.162-11.936,47.583-11.936,69.208,1.493&#10;&#9;&#9;&#9;c21.625,13.426,85.079,20.885,125.444,14.919c40.373-5.966,61.997-2.986,92.283,46.251c30.277,49.237,77.853,59.68,85.064,83.552&#10;&#9;&#9;&#9;c7.21,23.872,15.871,56.697,5.768,91.013c-10.094,34.315-2.884,82.059-15.856,95.488&#10;&#9;&#9;&#9;c-11.288,11.669-454.149,45.256-574.374,44.282C268.451,630.492,240.926,593.823,240.926,593.823z" style="fill: rgb(187, 43, 64);"/>
		<g>
			<path fill="#A3283A" d="M1148.639,747.495l-91.375-300.562c-4.699-15.471-20.395-24.863-36.207-21.738l-66.111,13.023&#10;&#9;&#9;&#9;&#9;c-11.742,2.313-21.149,11.073-24.297,22.613l-65.453,240.171c-4.268-0.981-8.733-1.098-13.14-0.234l-49.97,9.845l107.187-126.681&#10;&#9;&#9;&#9;&#9;c2.782-4.795,34.641-103.083,34.641-108.625l-56.514,14.506c0-9.418-4.21-18.338-11.486-24.323&#10;&#9;&#9;&#9;&#9;c-7.277-5.98-16.859-8.385-26.083-6.57l-201.321,39.651c-5.352,1.058-10.146,3.462-14.106,6.783&#10;&#9;&#9;&#9;&#9;c-4.993-1.588-10.352-1.965-15.6-0.93L417.482,544.08c-7.16,1.406-13.309,5.205-17.789,10.428&#10;&#9;&#9;&#9;&#9;c-6.252-3.206-13.455-4.279-20.453-2.895l-72.436,14.264c-14.758,2.903-25.402,15.845-25.402,30.893v23.517&#10;&#9;&#9;&#9;&#9;c-10.885-11.936-23.989-21.054-39.084-27.009c-16.456-6.46-34.56-7.902-53.257-4.213l-113.658,22.39&#10;&#9;&#9;&#9;&#9;C60.644,614.365,50,627.307,50,642.343V960.91c0,9.414,4.217,18.338,11.486,24.318c5.688,4.678,12.768,7.167,20,7.167&#10;&#9;&#9;&#9;&#9;c2.028,0,4.07-0.198,6.091-0.6l72.429-14.26c14.758-2.906,25.395-15.849,25.395-30.893v-71.917l17.679-3.477&#10;&#9;&#9;&#9;&#9;c17.613-3.469,33.945-10.9,48.55-22.093c11.339-8.69,21.259-19.106,29.772-30.878v97.055c0,9.414,4.21,18.338,11.487,24.326&#10;&#9;&#9;&#9;&#9;c5.681,4.671,12.767,7.16,19.999,7.16c2.028,0,4.07-0.198,6.084-0.585l72.429-14.261c5.966-1.178,11.193-4.048,15.387-7.971&#10;&#9;&#9;&#9;&#9;c3.573,1.361,7.358,2.115,11.208,2.115c2.021,0,4.063-0.198,6.077-0.593l209.124-41.186c3.829-0.753,7.365-2.203,10.527-4.172&#10;&#9;&#9;&#9;&#9;c1.75,0.293,3.522,0.453,5.307,0.453c2.021,0,4.063-0.197,6.091-0.593l209.11-41.192c1.926-0.373,3.771-0.944,5.535-1.647&#10;&#9;&#9;&#9;&#9;c1.867-0.029,3.741-0.183,5.6-0.542l73.915-14.56c12.094-2.387,21.691-11.603,24.546-23.594l10.907-45.753l21.516-4.246&#10;&#9;&#9;&#9;&#9;l8.331,30.856c4.304,15.973,20.27,25.9,36.485,22.686l73.534-14.488c8.734-1.72,16.333-7.057,20.908-14.685&#10;&#9;&#9;&#9;&#9;C1150.088,765.225,1151.23,756.016,1148.639,747.495z M621.021,746.28l-49.962,9.839l70.526-121.74&#10;&#9;&#9;&#9;&#9;c5.914,2.679,12.569,3.536,19.099,2.255l47.356-9.319l-73.044,119.369C630.479,745.519,625.706,745.343,621.021,746.28z&#10;&#9;&#9;&#9;&#9; M416.808,771.199v-89.237c4.173,0.922,8.536,1.025,12.84,0.183l47.364-9.327L416.808,771.199z" style="fill: rgb(187, 43, 64);"/>
			<g>
				<g>
					<path fill="#E4D9C0" d="M81.485,960.91V642.343l113.658-22.386c12.877-2.533,24.758-1.654,35.658,2.628&#10;&#9;&#9;&#9;&#9;&#9;&#9;c10.893,4.297,20.249,10.819,28.052,19.604c7.797,8.785,13.917,19.399,18.382,31.822c4.458,12.438,6.684,25.381,6.684,38.843&#10;&#9;&#9;&#9;&#9;&#9;&#9;c0,14.062-2.109,28.169-6.31,42.291c-4.224,14.143-10.095,27.115-17.65,38.923c-7.555,11.807-16.72,21.844-27.481,30.094&#10;&#9;&#9;&#9;&#9;&#9;&#9;c-10.768,8.258-22.599,13.653-35.475,16.186l-43.089,8.492v97.802L81.485,960.91z M153.914,772.56l38.264-7.533&#10;&#9;&#9;&#9;&#9;&#9;&#9;c4.458-0.885,8.594-4.165,12.438-9.86c3.836-5.688,5.754-14.971,5.754-27.825c0-13.155-2.226-21.691-6.684-25.607&#10;&#9;&#9;&#9;&#9;&#9;&#9;c-4.459-3.909-8.909-5.425-13.367-4.546l-36.405,7.167V772.56z"/>
					<path fill="#E4D9C0" d="M312.886,915.332V596.77l72.429-14.264v318.566L312.886,915.332z"/>
					<path fill="#E4D9C0" d="M417.994,829.58l123.314-201.519l-117.743,23.184v-76.272l201.321-39.655v65.065l-115.89,200.055&#10;&#9;&#9;&#9;&#9;&#9;&#9;l118.116-23.265v76.272L417.994,894.63V829.58z"/>
					<path fill="#E4D9C0" d="M649.029,784.069l123.314-201.516l-117.75,23.195v-76.28l201.321-39.655v65.064L740.023,754.932&#10;&#9;&#9;&#9;&#9;&#9;&#9;l118.116-23.271v76.279l-209.11,41.193V784.069z"/>
					<path fill="#E4D9C0" d="M961.028,469.111l66.112-13.023l91.374,300.565l-73.541,14.488l-15.974-59.223l-70.203,13.836&#10;&#9;&#9;&#9;&#9;&#9;&#9;l-15.6,65.438l-73.908,14.553L961.028,469.111z M1017.484,655.857l-23.396-94.091L969.564,665.3L1017.484,655.857z"/>
				</g>
			</g>
		</g>
		<path fill="#E4D9C0" d="M405.154,492.365c0-15.651-12.687-28.345-28.345-28.345c-15.659,0-28.352,12.694-28.352,28.345&#10;&#9;&#9;&#9;c0,15.659,12.693,28.352,28.352,28.352C392.467,520.717,405.154,508.024,405.154,492.365z"/>
		<path fill="#E4D9C0" d="M755.769,416.276c0-15.655-12.687-28.345-28.345-28.345c-15.658,0-28.352,12.69-28.352,28.345&#10;&#9;&#9;&#9;c0,15.659,12.694,28.352,28.352,28.352C743.083,444.628,755.769,431.934,755.769,416.276z"/>
		<path fill="#E4D9C0" d="M452.898,378.974c0-11.533-9.348-20.885-20.886-20.885c-11.537,0-20.893,9.352-20.893,20.885&#10;&#9;&#9;&#9;c0,11.537,9.356,20.893,20.893,20.893C443.55,399.866,452.898,390.511,452.898,378.974z"/>
		<path fill="#E4D9C0" d="M597.617,453.574c0-23.89-19.363-43.264-43.263-43.264c-23.887,0-43.272,19.374-43.272,43.264&#10;&#9;&#9;&#9;c0,23.894,19.384,43.268,43.272,43.268C578.254,496.842,597.617,477.468,597.617,453.574z"/>
		<path fill="#E4D9C0" d="M631.936,335.706c0-11.534-9.349-20.886-20.886-20.886c-11.537,0-20.893,9.352-20.893,20.886&#10;&#9;&#9;&#9;c0,11.537,9.356,20.889,20.893,20.889C622.587,356.595,631.936,347.243,631.936,335.706z"/>
	</g>
	<polygon fill="#E4D9C0" points="262.236,995.06 947.544,865.238 947.544,994.225 &#9;"/>
</g>
</svg>